<?xml version="1.0" encoding="UTF-8"?>
<svg version="1.1" xmlns="http://www.w3.org/2000/svg" width="241" height="209">
<path d="M0 0 C79.53 0 159.06 0 241 0 C241 68.97 241 137.94 241 209 C161.47 209 81.94 209 0 209 C0 140.03 0 71.06 0 0 Z " fill="#61DAFB" transform="translate(0,0)"/>
<path d="M0 0 C22.11 0 44.22 0 67 0 C67 68.97 67 137.94 67 209 C44.89 209 22.78 209 0 209 C2 207 2 207 5.375 205.1875 C13.13255019 200.77067536 15.31217588 193.06347235 18 185 C18.23069907 181.92142754 18.1900734 178.83636059 18.1875 175.75 C18.18741943 174.85845215 18.18733887 173.9669043 18.18725586 173.04833984 C18.12079427 165.23105721 17.30458937 157.71326562 16 150 C15.81308594 148.87335938 15.62617188 147.74671875 15.43359375 146.5859375 C15.29050781 145.73257813 15.14742187 144.87921875 15 144 C15.53625 143.79246094 16.0725 143.58492187 16.625 143.37109375 C19.42625682 142.26994181 22.21421481 141.13979177 25 140 C25.92401611 139.62198242 25.92401611 139.62198242 26.86669922 139.23632812 C48.12194416 130.57064612 48.12194416 130.57064612 62.3359375 113.36328125 C64.23586979 106.60175752 64.18804213 99.42157995 60.9375 93.125 C59.55523091 90.97215237 59.55523091 90.97215237 58 89 C57.53851563 88.39800781 57.07703125 87.79601562 56.6015625 87.17578125 C48.66786616 78.21513437 36.41400864 73.4793134 25.47265625 69.32421875 C21.93324407 67.97454414 18.47231637 66.5122093 15 65 C15.2165625 63.71609375 15.433125 62.4321875 15.65625 61.109375 C18.52192275 43.29022432 21.25239826 25.8671582 12.0625 9.5625 C8.62279102 5.28892217 5.18706047 2.77842073 0 1 C0 0.67 0 0.34 0 0 Z " fill="#FEFEFE" transform="translate(174,0)"/>
<path d="M0 0 C22.11 0 44.22 0 67 0 C65 2 65 2 61.625 3.8125 C54.79509096 7.68702397 51.62430458 14.48662937 49.46069336 21.83056641 C46.94022393 33.6996132 48.51431554 47.5498586 51.34375 59.234375 C52 62 52 62 52 65 C51.19332886 65.30852905 51.19332886 65.30852905 50.37036133 65.62329102 C23.48870192 75.19390621 23.48870192 75.19390621 4.78125 95.5546875 C2.61177875 102.34513252 3.11223811 108.86309029 6.0625 115.3125 C15.40307466 131.49078816 35.40166052 137.83438588 52 144 C51.7834375 145.28390625 51.566875 146.5678125 51.34375 147.890625 C46.99998342 174.73405473 46.99998342 174.73405473 55.1640625 199.98046875 C58.17659385 204.13038438 62.40657889 206.06232856 67 208 C67 208.33 67 208.66 67 209 C44.89 209 22.78 209 0 209 C0 140.03 0 71.06 0 0 Z " fill="#FEFEFE" transform="translate(0,0)"/>
<path d="M0 0 C2.9189997 0.06550213 5.79806854 -0.03984693 8.71459961 -0.16113281 C21.65761786 -0.30251978 21.65761786 -0.30251978 26.39227295 3.67224121 C29.84673525 7.69669919 32.24563714 12.20121385 34.49246216 16.98217773 C35.75821382 19.65701511 37.25874242 22.16677823 38.77514648 24.70605469 C39.60077175 26.23827336 40.41896404 27.77452976 41.22827148 29.31542969 C41.66397461 30.10304688 42.09967773 30.89066406 42.54858398 31.70214844 C45.46347123 37.20701512 45.46347123 37.20701512 45.52124023 40.55761719 C43.8955142 44.4666663 42.02738565 48.20305509 40.04077148 51.94042969 C39.65211914 52.69839844 39.2634668 53.45636719 38.86303711 54.23730469 C37.99222396 55.88954737 37.08179253 57.52127748 36.14111328 59.13476562 C34.85626194 61.39924302 33.75019295 63.62014518 32.65332031 65.97265625 C30.14939327 70.9072236 27.62170944 75.79069268 22.27255249 77.9598999 C16.8606122 79.23509663 11.49178418 79.28958266 5.95654297 79.13085938 C3.03754327 79.06535725 0.15847443 79.1707063 -2.75805664 79.29199219 C-15.70107489 79.43337915 -15.70107489 79.43337915 -20.43572998 75.45861816 C-23.89019228 71.43416018 -26.28909417 66.92964553 -28.53591919 62.14868164 C-29.80167086 59.47384427 -31.30219945 56.96408114 -32.81860352 54.42480469 C-33.64422878 52.89258602 -34.46242107 51.35632962 -35.27172852 49.81542969 C-35.70743164 49.0278125 -36.14313477 48.24019531 -36.59204102 47.42871094 C-39.50692826 41.92384425 -39.50692826 41.92384425 -39.56469727 38.57324219 C-37.93897123 34.66419308 -36.07084268 30.92780428 -34.08422852 27.19042969 C-33.69557617 26.43246094 -33.30692383 25.67449219 -32.90649414 24.89355469 C-32.03568099 23.241312 -31.12524956 21.60958189 -30.18457031 19.99609375 C-28.89971897 17.73161636 -27.79364998 15.5107142 -26.69677734 13.15820312 C-20.52108102 0.98756522 -13.12862003 -0.37646376 0 0 Z " fill="#FDFEFE" transform="translate(117.521728515625,64.9345703125)"/>
<path d="M0 0 C1.04907227 1.85424805 1.04907227 1.85424805 1.81640625 4.26171875 C2.10580078 5.13376953 2.39519531 6.00582031 2.69335938 6.90429688 C2.98017578 7.82275391 3.26699219 8.74121094 3.5625 9.6875 C4.14339641 11.48428603 4.72795191 13.27989376 5.31640625 15.07421875 C5.59371582 15.93192871 5.87102539 16.78963867 6.15673828 17.67333984 C7.00829441 20.21376816 7.00829441 20.21376816 8.77734375 23.20703125 C11.05315054 28.40575922 9.14374829 32.8395815 7.22265625 37.8828125 C6.51055013 39.63346155 5.79031396 41.38082282 5.0625 43.125 C4.70220703 44.00542969 4.34191406 44.88585937 3.97070312 45.79296875 C3.28326931 47.47167454 2.59285956 49.14916598 1.89892578 50.82519531 C0.91349086 53.20929479 -0.04964027 55.60171 -1 58 C-15.26102604 55.70804939 -30.53454609 48.66354357 -40.125 37.6875 C-42.72609026 33.95927062 -43.47756941 30.73892523 -43.40234375 26.18359375 C-42.23022602 19.82229464 -36.52553444 15.06058057 -31.45703125 11.50390625 C-7.61292605 -3.09065735 -7.61292605 -3.09065735 0 0 Z " fill="#FDFEFE" transform="translate(56,76)"/>
<path d="M0 0 C10.62681905 4.83533926 19.75566694 12.06642059 28.1875 20.0625 C26.84838647 22.95712526 25.32716502 25.29349479 23.2890625 27.7421875 C22.72703125 28.42410156 22.165 29.10601562 21.5859375 29.80859375 C21.00070313 30.51113281 20.41546875 31.21367188 19.8125 31.9375 C18.65627191 33.32858692 17.50257496 34.72178199 16.3515625 36.1171875 C15.79130371 36.78508301 15.23104492 37.45297852 14.65380859 38.14111328 C12.9849032 40.19273926 12.9849032 40.19273926 11.578125 43.421875 C7.53833076 47.88413139 2.08029316 47.7504077 -3.6875 48.4375 C-4.85925781 48.60121094 -6.03101563 48.76492187 -7.23828125 48.93359375 C-12.47351021 49.64073591 -17.52372248 50.14638619 -22.8125 50.0625 C-26.38977941 41.54015787 -27.02200522 33.09643737 -27.125 23.9375 C-27.14256348 23.10275146 -27.16012695 22.26800293 -27.17822266 21.40795898 C-27.17036869 13.43539611 -25.62194586 5.87194586 -19.8125 0.0625 C-13.46007131 -3.72478307 -6.64127448 -2.55095311 0 0 Z " fill="#FDFEFE" transform="translate(84.8125,11.9375)"/>
<path d="M0 0 C4.62688892 4.40656088 7.28758145 10.16979527 7.78613281 16.56787109 C8.28944253 43.0033362 8.28944253 43.0033362 2.625 51.5 C1.69602905 51.32609741 1.69602905 51.32609741 0.74829102 51.14868164 C-2.10469004 50.61658964 -4.95857752 50.08951827 -7.8125 49.5625 C-8.78638672 49.38009766 -9.76027344 49.19769531 -10.76367188 49.00976562 C-11.72724609 48.83251953 -12.69082031 48.65527344 -13.68359375 48.47265625 C-14.64394531 48.2929126 -15.60429687 48.11316895 -16.59375 47.92797852 C-19.16753451 47.53192477 -21.61698415 47.42206783 -24.21484375 47.34375 C-27.84755896 46.96969227 -29.31005591 45.99060901 -31.6328125 43.18359375 C-32.61521233 41.78660924 -33.57028724 40.37008833 -34.5 38.9375 C-35.5158856 37.47623252 -36.53409752 36.01657944 -37.5546875 34.55859375 C-38.03518555 33.85718262 -38.51568359 33.15577148 -39.01074219 32.43310547 C-41.51821639 28.88010248 -44.41032378 25.67345623 -47.375 22.5 C-43.36243432 12.32861259 -28.68410136 5.09820019 -19.375 0.5 C-12.77819521 -2.04234542 -6.58363518 -2.92606008 0 0 Z " fill="#FDFEFE" transform="translate(175.375,11.5)"/>
<path d="M0 0 C5.6971606 13.50083436 6.2593161 31.25863794 1 45 C-1.26192898 48.64827255 -3.10769341 50.34489306 -7 52 C-17.08426378 54.15083948 -25.69379107 49.14719862 -34 44 C-37.53082235 41.52658539 -40.78468719 38.86723307 -44 36 C-45.37403378 34.83219552 -46.74893725 33.66541298 -48.125 32.5 C-49.07375 31.675 -50.0225 30.85 -51 30 C-48.64811971 24.51661058 -44.28954167 20.33878831 -40.4296875 15.87548828 C-38.89808603 13.95845418 -38.89808603 13.95845418 -37.5859375 11.46435547 C-35.2120056 7.37435496 -33.50150828 4.58675711 -28.99243164 2.82470703 C-25.44677068 2.1208096 -21.97529955 1.69425733 -18.375 1.375 C-17.16070312 1.22933594 -15.94640625 1.08367187 -14.6953125 0.93359375 C-9.77854311 0.3650246 -4.95234577 -0.07657678 0 0 Z " fill="#FDFEFE" transform="translate(179,147)"/>
<path d="M0 0 C2.40954232 0.16364573 4.8016585 0.37932554 7.203125 0.640625 C10.15134804 0.91967492 13.02949762 1.07182272 15.984375 1.171875 C30.71154819 2.03401853 30.71154819 2.03401853 35.77734375 7.4765625 C38.42144075 10.83796028 40.663101 14.41588625 42.82910156 18.09912109 C44.39082452 20.63447868 46.24710952 22.80315372 48.25 25 C48.79140625 25.598125 49.3328125 26.19625 49.890625 26.8125 C50.25671875 27.204375 50.6228125 27.59625 51 28 C46.98743432 38.17138741 32.30910136 45.40179981 23 50 C17.56149639 52.09594724 12.78374781 52.76176191 7 52 C2.52901027 49.8051505 -0.01458716 47.56644952 -2 43 C-5.97243397 30.558037 -5.94110034 11.88220068 0 0 Z " fill="#FDFEFE" transform="translate(62,147)"/>
<path d="M0 0 C15.1350765 3.52122188 31.95612103 9.54859521 41.03515625 22.99609375 C42.80304795 26.66786881 42.6438399 28.94380863 42 33 C36.99357171 44.8902672 25.22988248 50.16331318 14 55 C3.57983193 59 3.57983193 59 0 59 C-1.65583573 54.96235996 -3.29787921 50.91924883 -4.9375 46.875 C-5.40607422 45.73289063 -5.87464844 44.59078125 -6.35742188 43.4140625 C-6.80537109 42.30546875 -7.25332031 41.196875 -7.71484375 40.0546875 C-8.12855225 39.03874512 -8.54226074 38.02280273 -8.96850586 36.97607422 C-10.86363744 31.50822712 -11.42155004 27.97271021 -9.19921875 22.55859375 C-8.79896484 21.56279297 -8.39871094 20.56699219 -7.98632812 19.54101562 C-7.55771484 18.51685547 -7.12910156 17.49269531 -6.6875 16.4375 C-6.27048828 15.40947266 -5.85347656 14.38144531 -5.42382812 13.32226562 C-4.64545708 11.40675283 -3.86120635 9.49361073 -3.0690918 7.58374023 C-2.02624579 5.06342983 -1.00820033 2.5343411 0 0 Z " fill="#FDFEFE" transform="translate(186,75)"/>
<path d="M0 0 C5.96450499 2.72663085 10.1124208 7.21391047 12.61328125 13.3125 C13.51516518 20.65341567 13.16000317 27.28284724 8.61328125 33.3125 C4.72442311 37.47837269 0.44946191 39.94086253 -5.21875 40.68359375 C-12.32189718 40.84185522 -16.98215291 40.077395 -22.38671875 35.3125 C-27.85568267 29.55569587 -28.9029539 24.0722627 -28.76953125 16.32421875 C-28.02353413 10.45520059 -25.05797816 6.86147214 -20.82421875 2.9375 C-14.34550143 -1.38164488 -7.60351122 -2.19020945 0 0 Z " fill="#61DAFB" transform="translate(128.38671875,84.6875)"/>
<path d="M0 0 C27.39 0 54.78 0 83 0 C83 0.33 83 0.66 83 1 C82.2471875 1.17273438 81.494375 1.34546875 80.71875 1.5234375 C65.22668941 5.62206518 53.20376776 14.83867076 42 26 C41.113125 25.21625 40.22625 24.4325 39.3125 23.625 C27.60738202 13.68270099 15.56100432 3.80098078 0 1 C0 0.67 0 0.34 0 0 Z " fill="#FCFEFE" transform="translate(79,0)"/>
<path d="M0 0 C1.36125 1.2065625 1.36125 1.2065625 2.75 2.4375 C14.90480919 12.82433695 26.4671796 20.86116071 42 25 C42 25.33 42 25.66 42 26 C14.61 26 -12.78 26 -41 26 C-41 25.67 -41 25.34 -41 25 C-40.2471875 24.82726562 -39.494375 24.65453125 -38.71875 24.4765625 C-23.22668941 20.37793482 -11.20376776 11.16132924 0 0 Z " fill="#FDFEFE" transform="translate(120,183)"/>
<path d="M0 0 C8.91 0 17.82 0 27 0 C24.65297413 3.91170979 22.33855497 7.27849906 19.5 10.8125 C18.7265625 11.78832031 17.953125 12.76414063 17.15625 13.76953125 C16.4446875 14.50558594 15.733125 15.24164063 15 16 C14.01 16 13.02 16 12 16 C9.84375 13.76953125 9.84375 13.76953125 7.5 10.8125 C6.33984375 9.36810547 6.33984375 9.36810547 5.15625 7.89453125 C3 5 3 5 0 0 Z " fill="#F6FCFE" transform="translate(107,152)"/>
<path d="M0 0 C0.99 0 1.98 0 3 0 C5.15625 2.23046875 5.15625 2.23046875 7.5 5.1875 C8.2734375 6.15042969 9.046875 7.11335938 9.84375 8.10546875 C12 11 12 11 15 16 C6.09 16 -2.82 16 -12 16 C-9.38382409 12.07573613 -6.82422367 8.32935061 -3.9375 4.625 C-3.26589844 3.75101563 -2.59429687 2.87703125 -1.90234375 1.9765625 C-1.27457031 1.32429688 -0.64679688 0.67203125 0 0 Z " fill="#F6FCFE" transform="translate(119,41)"/>
<path d="M0 0 C2.00062253 2.59522582 3.79129246 5.21117846 5.4453125 8.0390625 C5.88230469 8.78414062 6.31929687 9.52921875 6.76953125 10.296875 C7.21683594 11.06515625 7.66414063 11.8334375 8.125 12.625 C8.80755859 13.78902344 8.80755859 13.78902344 9.50390625 14.9765625 C12.83522003 20.67044005 12.83522003 20.67044005 14 23 C6.77875787 22.58169634 -0.04567778 22.04538889 -7 20 C-3.88 3.88 -3.88 3.88 0 0 Z " fill="#F8FDFE" transform="translate(72,117)"/>
<path d="M0 0 C-0.51949219 0.90621094 -1.03898437 1.81242187 -1.57421875 2.74609375 C-5.42684075 9.47339291 -9.26248351 16.20778253 -13 23 C-16.36471316 21.31764342 -16.89891532 17.49819949 -18.125 14.125 C-18.40214844 13.39152344 -18.67929688 12.65804687 -18.96484375 11.90234375 C-20.10553626 8.81741671 -21 6.31479633 -21 3 C-18.81462633 2.49078672 -16.62657569 1.99305563 -14.4375 1.5 C-12.61025391 1.08234375 -12.61025391 1.08234375 -10.74609375 0.65625 C-7.07777293 0.01362446 -3.71497397 -0.11474823 0 0 Z " fill="#F8FDFE" transform="translate(86,69)"/>
<path d="M0 0 C3.37478448 2.6919102 4.30155263 6.00447605 5.6875 10 C6.12449219 11.2375 6.56148437 12.475 7.01171875 13.75 C8 17 8 17 8 20 C5.43850372 20.50567729 2.87600535 21.00470132 0.3125 21.5 C-0.40873047 21.64308594 -1.12996094 21.78617188 -1.87304688 21.93359375 C-5.63841359 22.65571887 -9.14473813 23.1824976 -13 23 C-12.22076172 21.64068359 -12.22076172 21.64068359 -11.42578125 20.25390625 C-7.57315925 13.52660709 -3.73751649 6.79221747 0 0 Z " fill="#F9FDFE" transform="translate(168,117)"/>
<path d="M0 0 C7.19270839 0.46247533 14.0030827 1.25077067 21 3 C19.69039355 10.26236302 17.24043814 16.3830748 14 23 C10.47401691 18.89307691 7.90444498 14.53095009 5.3125 9.8125 C4.90966797 9.08869141 4.50683594 8.36488281 4.09179688 7.61914062 C1.26004464 2.52008929 1.26004464 2.52008929 0 0 Z " fill="#F9FDFE" transform="translate(155,69)"/>
</svg>
